<svg width="161" height="48" viewBox="0 0 161 48" fill="none" xmlns="http://www.w3.org/2000/svg">
<g clip-path="url(#clip0_164_121)">
<path d="M37.44 -2H14.56C6.51873 -2 0 4.51873 0 12.56V35.44C0 43.4813 6.51873 50 14.56 50H37.44C45.4813 50 52 43.4813 52 35.44V12.56C52 4.51873 45.4813 -2 37.44 -2Z" fill="#212121"/>
<path d="M37.96 28.3926C37.96 34.28 33.1874 39.0526 27.3 39.0526C21.4127 39.0526 16.64 34.28 16.64 28.3926C16.64 22.5052 21.4127 17.7326 27.3 17.7326C33.1874 17.7326 37.96 22.5052 37.96 28.3926ZM23.3585 28.3926C23.3585 30.5695 25.1232 32.3341 27.3 32.3341C29.4769 32.3341 31.2415 30.5695 31.2415 28.3926C31.2415 26.2158 29.4769 24.4511 27.3 24.4511C25.1232 24.4511 23.3585 26.2158 23.3585 28.3926Z" fill="url(#paint0_radial_164_121)"/>
<path d="M37.96 28.3926C37.96 34.28 33.1874 39.0526 27.3 39.0526C21.4127 39.0526 16.64 34.28 16.64 28.3926C16.64 22.5052 21.4127 17.7326 27.3 17.7326C33.1874 17.7326 37.96 22.5052 37.96 28.3926ZM23.3585 28.3926C23.3585 30.5695 25.1232 32.3341 27.3 32.3341C29.4769 32.3341 31.2415 30.5695 31.2415 28.3926C31.2415 26.2158 29.4769 24.4511 27.3 24.4511C25.1232 24.4511 23.3585 26.2158 23.3585 28.3926Z" fill="url(#paint1_radial_164_121)"/>
<path d="M37.96 28.3926C37.96 34.28 33.1874 39.0526 27.3 39.0526C21.4127 39.0526 16.64 34.28 16.64 28.3926C16.64 22.5052 21.4127 17.7326 27.3 17.7326C33.1874 17.7326 37.96 22.5052 37.96 28.3926ZM23.3585 28.3926C23.3585 30.5695 25.1232 32.3341 27.3 32.3341C29.4769 32.3341 31.2415 30.5695 31.2415 28.3926C31.2415 26.2158 29.4769 24.4511 27.3 24.4511C25.1232 24.4511 23.3585 26.2158 23.3585 28.3926Z" fill="url(#paint2_linear_164_121)"/>
<path fill-rule="evenodd" clip-rule="evenodd" d="M19.9968 6.89083C21.8507 6.89083 23.3536 8.39369 23.3536 10.2476V28.3923H16.64V10.2476C16.64 8.39369 18.1429 6.89083 19.9968 6.89083Z" fill="url(#paint3_linear_164_121)"/>
<path d="M159.953 33.7383C159.468 34.2236 158.885 34.4663 158.206 34.4663C157.526 34.4663 156.944 34.2236 156.459 33.7383C155.973 33.2529 155.731 32.6705 155.731 31.9911C155.731 31.3116 155.973 30.7292 156.459 30.2439C156.944 29.7585 157.526 29.5159 158.206 29.5159C158.885 29.5159 159.468 29.7585 159.953 30.2439C160.438 30.7292 160.681 31.3116 160.681 31.9911C160.681 32.6705 160.438 33.2529 159.953 33.7383Z" fill="white"/>
<path d="M143.44 28.2392C143.945 30.0641 145.313 30.9765 147.546 30.9765C148.347 30.9765 149.039 30.8258 149.622 30.5243C150.418 30.1134 151.389 29.8558 152.164 30.3032C153.065 30.8227 153.343 32.0273 152.551 32.7004C151.231 33.8225 149.543 34.3836 147.488 34.3836C145.081 34.3836 143.149 33.6556 141.693 32.1996C140.237 30.7436 139.509 28.909 139.509 26.6959C139.509 24.5022 140.227 22.6773 141.664 21.2213C143.1 19.7459 144.945 19.0082 147.197 19.0082C149.332 19.0082 151.089 19.7459 152.468 21.2213C153.865 22.6967 154.564 24.5216 154.564 26.6959C154.564 27.1812 154.515 27.6957 154.419 28.2392H143.44ZM143.382 25.3272H150.808C150.594 24.3372 150.147 23.5994 149.468 23.1141C148.808 22.6288 148.051 22.3861 147.197 22.3861C146.187 22.3861 145.352 22.6482 144.693 23.1724C144.032 23.6771 143.595 24.3954 143.382 25.3272Z" fill="white"/>
<path d="M134.948 34.5458C133.911 34.5458 133.07 33.7048 133.07 32.6675V15.1664C133.07 14.1291 133.911 13.2882 134.948 13.2882C135.986 13.2882 136.827 14.1291 136.827 15.1664V32.6675C136.827 33.7048 135.986 34.5458 134.948 34.5458Z" fill="white"/>
<path d="M125.881 15.6864C125.881 14.6491 126.721 13.8082 127.758 13.8082C128.796 13.8082 129.636 14.6491 129.636 15.6864V32.7216C129.636 33.7589 128.796 34.5999 127.758 34.5999C126.721 34.5999 125.881 33.7589 125.881 32.7216V32.4741C124.773 33.8913 123.201 34.5999 121.163 34.5999C119.202 34.5999 117.523 33.8621 116.125 32.3867C114.747 30.8919 114.058 29.0671 114.058 26.9122C114.058 24.7573 114.747 22.9421 116.125 21.4667C117.523 19.9719 119.202 19.2245 121.163 19.2245C123.201 19.2245 124.773 19.9331 125.881 21.3503V15.6864ZM118.949 29.8824C119.726 30.6395 120.697 31.0181 121.862 31.0181C123.027 31.0181 123.988 30.6395 124.745 29.8824C125.502 29.1059 125.881 28.1158 125.881 26.9122C125.881 25.7085 125.502 24.7282 124.745 23.9711C123.988 23.1945 123.027 22.8063 121.862 22.8063C120.697 22.8063 119.726 23.1945 118.949 23.9711C118.192 24.7282 117.814 25.7085 117.814 26.9122C117.814 28.1158 118.192 29.1059 118.949 29.8824Z" fill="white"/>
<path d="M106.13 19.5282C107.722 19.5282 109.033 20.0621 110.062 21.1298C111.11 22.1975 111.634 23.673 111.634 25.5561V32.6177C111.634 33.6549 110.793 34.4959 109.756 34.4959C108.718 34.4959 107.878 33.6549 107.878 32.6177V26.022C107.878 25.0513 107.616 24.3136 107.091 23.8089C106.567 23.2847 105.868 23.0226 104.995 23.0226C104.024 23.0226 103.248 23.3235 102.665 23.9253C102.083 24.5271 101.792 25.4298 101.792 26.6335V32.6177C101.792 33.6549 100.951 34.4959 99.9133 34.4959C98.8759 34.4959 98.035 33.6549 98.035 32.6177V21.4582C98.035 20.4209 98.8759 19.58 99.9133 19.58C100.951 19.58 101.792 20.4209 101.792 21.4582V21.5666C102.704 20.2077 104.15 19.5282 106.13 19.5282Z" fill="white"/>
<path d="M90.8393 21.4065C90.8393 20.3691 91.6807 19.5282 92.7175 19.5282C93.7549 19.5282 94.5958 20.3691 94.5958 21.4065V32.6177C94.5958 33.6549 93.7549 34.4959 92.7175 34.4959C91.6807 34.4959 90.8393 33.6549 90.8393 32.6177V32.4575C89.9272 33.8164 88.4806 34.4959 86.5004 34.4959C84.9087 34.4959 83.5884 33.962 82.5401 32.8943C81.5115 31.8266 80.9967 30.3511 80.9967 28.4681V21.4065C80.9967 20.3691 81.8381 19.5282 82.875 19.5282C83.9124 19.5282 84.7532 20.3691 84.7532 21.4065V28.0021C84.7532 28.9728 85.0153 29.7202 85.5395 30.2444C86.0636 30.7491 86.7625 31.0015 87.6361 31.0015C88.6069 31.0015 89.3833 30.7006 89.9657 30.0988C90.5481 29.497 90.8393 28.5943 90.8393 27.3906V21.4065Z" fill="white"/>
<path d="M71.474 19.2245C73.4349 19.2245 75.1041 19.9719 76.4826 21.4667C77.8804 22.9421 78.5792 24.7573 78.5792 26.9122C78.5792 29.0671 77.8804 30.8919 76.4826 32.3867C75.1041 33.8621 73.4349 34.5999 71.474 34.5999C69.4356 34.5999 67.8631 33.8913 66.7565 32.4741V32.8339C66.7565 33.8712 65.9157 34.7122 64.8783 34.7122C63.8409 34.7122 63 33.8712 63 32.8339V15.6864C63 14.6491 63.8409 13.8082 64.8783 13.8082C65.9157 13.8082 66.7565 14.6491 66.7565 15.6864V21.3503C67.8631 19.9331 69.4356 19.2245 71.474 19.2245ZM67.8922 29.8824C68.6493 30.6395 69.6103 31.0181 70.7751 31.0181C71.9399 31.0181 72.9008 30.6395 73.658 29.8824C74.4343 29.1059 74.8228 28.1158 74.8228 26.9122C74.8228 25.7085 74.4343 24.7282 73.658 23.9711C72.9008 23.1945 71.9399 22.8063 70.7751 22.8063C69.6103 22.8063 68.6493 23.1945 67.8922 23.9711C67.1351 24.7282 66.7565 25.7085 66.7565 26.9122C66.7565 28.1158 67.1351 29.1059 67.8922 29.8824Z" fill="white"/>
</g>
<defs>
<radialGradient id="paint0_radial_164_121" cx="0" cy="0" r="1" gradientUnits="userSpaceOnUse" gradientTransform="translate(27.3 28.3926) rotate(180) scale(10.66)">
<stop stop-color="#737373"/>
<stop offset="1" stop-color="white"/>
</radialGradient>
<radialGradient id="paint1_radial_164_121" cx="0" cy="0" r="1" gradientUnits="userSpaceOnUse" gradientTransform="translate(27.3 28.3926) rotate(180) scale(10.66)">
<stop stop-color="#72CCFF"/>
<stop offset="0.525" stop-color="#5CFFEB"/>
<stop offset="1" stop-color="#48A7FF"/>
</radialGradient>
<linearGradient id="paint2_linear_164_121" x1="27.3" y1="17.7326" x2="27.04" y2="28.16" gradientUnits="userSpaceOnUse">
<stop stop-color="#5CFFEB"/>
<stop offset="1" stop-color="#48A7FF"/>
</linearGradient>
<linearGradient id="paint3_linear_164_121" x1="20.2568" y1="10.2476" x2="20.2568" y2="28.3923" gradientUnits="userSpaceOnUse">
<stop stop-color="#247EE9"/>
<stop offset="1" stop-color="#48A7FF"/>
</linearGradient>
<clipPath id="clip0_164_121">
<rect width="160.76" height="48" fill="white"/>
</clipPath>
</defs>
</svg>
